<svg width="50" height="50" viewBox="0 0 50 50" fill="none" xmlns="http://www.w3.org/2000/svg">
<path d="M19.1 45.85C17.2667 45.85 15.4667 45.6 13.7 45.1C11.9333 44.6 10.4833 43.8833 9.35 42.95C8.25 42.0167 7.7 40.95 7.7 39.75V34.4H8.6C9.16667 37.7333 10.2667 40.15 11.9 41.65C13.5333 43.1167 15.7833 43.85 18.65 43.85C20.45 43.85 21.9833 43.4 23.25 42.5C24.55 41.6 25.2 40.35 25.2 38.75C25.2 37.35 24.7667 36.1333 23.9 35.1C23.0333 34.0667 21.6333 32.9833 19.7 31.85L13.55 28.2C11.4167 26.9333 9.9 25.65 9 24.35C8.13333 23.05 7.7 21.4667 7.7 19.6C7.7 17.0333 8.58333 14.9833 10.35 13.45C12.15 11.8833 14.5 11.1 17.4 11.1C19.1 11.1 20.7833 11.35 22.45 11.85C24.1167 12.3167 25.4833 13.0167 26.55 13.95C27.65 14.85 28.2 15.9 28.2 17.1V22.45H27.3C26.7333 19.1167 25.65 16.7333 24.05 15.3C22.4833 13.8333 20.2667 13.1 17.4 13.1C15.8667 13.1 14.5167 13.5667 13.35 14.5C12.1833 15.4333 11.6 16.65 11.6 18.15C11.6 19.5167 12.0167 20.65 12.85 21.55C13.7167 22.45 15.15 23.5 17.15 24.7L23.3 28.35C25.5667 29.7167 27.1667 30.9833 28.1 32.15C29.0333 33.3167 29.5 34.8 29.5 36.6C29.5 39.4 28.5667 41.65 26.7 43.35C24.8333 45.0167 22.3 45.85 19.1 45.85Z" fill="#30967E"/>
<g clip-path="url(#clip0_2_48)">
<path d="M43.4367 16.4111L36.6162 19.712C36.5521 19.7437 36.4798 19.7547 36.4092 19.7433C36.3386 19.732 36.2733 19.699 36.2224 19.6488L35.0192 18.4456C34.9692 18.3952 34.936 18.3305 34.9243 18.2604C34.9125 18.1903 34.9228 18.1183 34.9536 18.0543L38.1791 11.2071C38.2087 11.1458 38.2557 11.0946 38.3144 11.0601C38.373 11.0255 38.4406 11.0092 38.5085 11.0131C38.5765 11.017 38.6417 11.041 38.696 11.082C38.7503 11.123 38.7912 11.1792 38.8135 11.2435L39.4577 13.1322C39.5184 13.1589 41.1348 13.3995 41.1397 13.4773C41.2129 13.5268 41.2642 13.6025 41.2831 13.6888L41.6161 15.3003L43.3759 15.7719C43.443 15.7905 43.5028 15.829 43.5475 15.8823C43.5922 15.9357 43.6197 16.0013 43.6263 16.0706C43.6329 16.1399 43.6183 16.2095 43.5844 16.2703C43.5506 16.3311 43.499 16.3802 43.4367 16.4111V16.4111Z" fill="#30967E"/>
<path d="M36.9298 19.87L36.6454 20.1544C36.4204 20.3761 36.1284 20.5171 35.8149 20.5553C35.5013 20.5936 35.184 20.5269 34.9123 20.3659C34.047 19.8603 33.7188 18.7203 34.4626 17.9716L34.747 17.6872C34.8115 17.6228 34.8989 17.5866 34.9901 17.5866C35.0812 17.5866 35.1687 17.6228 35.2331 17.6872L36.9346 19.3887C36.997 19.4536 37.0314 19.5404 37.0305 19.6304C37.0296 19.7203 36.9934 19.8064 36.9298 19.87V19.87Z" fill="#4D4D4D"/>
<path d="M43.4367 16.4111L36.6162 19.712C36.5521 19.7437 36.4798 19.7547 36.4092 19.7433C36.3386 19.732 36.2733 19.699 36.2224 19.6488L35.5953 19.0217L41.1397 13.4773C41.2129 13.5268 41.2643 13.6025 41.2831 13.6888L41.6161 15.3003L43.3759 15.7719C43.443 15.7905 43.5028 15.829 43.5475 15.8823C43.5922 15.9357 43.6197 16.0013 43.6263 16.0706C43.6329 16.1399 43.6183 16.2095 43.5844 16.2703C43.5506 16.3311 43.499 16.3802 43.4367 16.4111V16.4111Z" fill="#3BB396"/>
<path d="M36.9298 19.87L36.6454 20.1544C36.5045 20.2919 36.3371 20.3992 36.1534 20.47C35.9697 20.5407 35.7736 20.5733 35.5769 20.5658C35.3802 20.5583 35.1871 20.5109 35.0093 20.4263C34.8315 20.3418 34.6728 20.222 34.5428 20.0742L36.0814 18.5356L36.9298 19.3839C36.9942 19.4483 37.0304 19.5358 37.0304 19.6269C37.0304 19.7181 36.9942 19.8055 36.9298 19.87V19.87Z" fill="#4D4D4D"/>
</g>
<defs>
<clipPath id="clip0_2_48">
<rect width="11" height="11" fill="white" transform="translate(37.8388 9) rotate(45)"/>
</clipPath>
</defs>
</svg>
