<svg width="133" height="45" viewBox="0 0 133 45" fill="none" xmlns="http://www.w3.org/2000/svg">
<path d="M11.28 36.68C9.81333 36.68 8.37333 36.48 6.96 36.08C5.54667 35.68 4.38667 35.1067 3.48 34.36C2.6 33.6133 2.16 32.76 2.16 31.8V27.52H2.88C3.33333 30.1867 4.21333 32.12 5.52 33.32C6.82667 34.4933 8.62667 35.08 10.92 35.08C12.36 35.08 13.5867 34.72 14.6 34C15.64 33.28 16.16 32.28 16.16 31C16.16 29.88 15.8133 28.9067 15.12 28.08C14.4267 27.2533 13.3067 26.3867 11.76 25.48L6.84 22.56C5.13333 21.5467 3.92 20.52 3.2 19.48C2.50667 18.44 2.16 17.1733 2.16 15.68C2.16 13.6267 2.86667 11.9867 4.28 10.76C5.72 9.50668 7.6 8.88001 9.92 8.88001C11.28 8.88001 12.6267 9.08001 13.96 9.48001C15.2933 9.85335 16.3867 10.4133 17.24 11.16C18.12 11.88 18.56 12.72 18.56 13.68V17.96H17.84C17.3867 15.2933 16.52 13.3867 15.24 12.24C13.9867 11.0667 12.2133 10.48 9.92 10.48C8.69333 10.48 7.61333 10.8533 6.68 11.6C5.74667 12.3467 5.28 13.32 5.28 14.52C5.28 15.6133 5.61333 16.52 6.28 17.24C6.97333 17.96 8.12 18.8 9.72 19.76L14.64 22.68C16.4533 23.7733 17.7333 24.7867 18.48 25.72C19.2267 26.6533 19.6 27.84 19.6 29.28C19.6 31.52 18.8533 33.32 17.36 34.68C15.8667 36.0133 13.84 36.68 11.28 36.68ZM24.2081 14.4C24.2081 13.04 24.0215 12.04 23.6481 11.4C23.2748 10.7333 22.5281 10.4 21.4081 10.4H20.6081V9.60001H24.2081C25.1948 9.60001 25.9281 9.73335 26.4081 10C26.9148 10.24 27.2748 10.6933 27.4881 11.36C27.7015 12.0267 27.8081 13.04 27.8081 14.4V18.8C28.3681 18.24 29.0881 17.7733 29.9681 17.4C30.8748 17 31.8881 16.8 33.0081 16.8C35.0081 16.8 36.6348 17.3333 37.8881 18.4C39.1681 19.4667 39.8081 21.3333 39.8081 24V36H36.2081V24C36.2081 22.1333 35.7815 20.7733 34.9281 19.92C34.1015 19.04 33.0615 18.6 31.8081 18.6C30.3948 18.6 29.0615 19.3067 27.8081 20.72V36H24.2081V14.4ZM52.22 36.4C50.22 36.4 48.58 35.8667 47.3 34.8C46.0467 33.7333 45.42 31.8667 45.42 29.2V22C45.42 20.64 45.2333 19.64 44.86 19C44.4867 18.3333 43.74 18 42.62 18H42.22V17.2H45.42C46.4067 17.2 47.14 17.3333 47.62 17.6C48.1267 17.84 48.4867 18.2933 48.7 18.96C48.9133 19.6267 49.02 20.64 49.02 22V29.2C49.02 31.0667 49.4333 32.44 50.26 33.32C51.1133 34.1733 52.1667 34.6 53.42 34.6C54.8333 34.6 56.1667 33.8933 57.42 32.48V17.2H61.02V36H59.02L57.62 34.4H57.42C56.86 34.96 56.1267 35.44 55.22 35.84C54.34 36.2133 53.34 36.4 52.22 36.4ZM72.3463 36.4C70.8529 36.4 69.6796 35.9733 68.8263 35.12C67.9729 34.2667 67.5463 32.96 67.5463 31.2V18.8H64.7463V17.2H67.5463V13.6L69.5463 11.2H71.1463V17.2H75.9463V18.8H71.1463V31.2C71.1463 33.6 72.0796 34.8 73.9463 34.8C74.5863 34.8 75.1196 34.7333 75.5463 34.6C75.9996 34.4667 76.4663 34.2667 76.9463 34L77.3463 34.8C76.7329 35.2533 76.0529 35.64 75.3063 35.96C74.5596 36.2533 73.5729 36.4 72.3463 36.4ZM85.8619 36.4C84.3685 36.4 83.1952 35.9733 82.3419 35.12C81.4885 34.2667 81.0619 32.96 81.0619 31.2V18.8H78.2619V17.2H81.0619V13.6L83.0619 11.2H84.6619V17.2H89.4619V18.8H84.6619V31.2C84.6619 33.6 85.5952 34.8 87.4619 34.8C88.1019 34.8 88.6352 34.7333 89.0619 34.6C89.5152 34.4667 89.9819 34.2667 90.4619 34L90.8619 34.8C90.2485 35.2533 89.5685 35.64 88.8219 35.96C88.0752 36.2533 87.0885 36.4 85.8619 36.4ZM93.9775 14.4C93.9775 13.04 93.7908 12.04 93.4175 11.4C93.0442 10.7333 92.2975 10.4 91.1775 10.4H90.3775V9.60001H93.9775C94.9642 9.60001 95.6975 9.73335 96.1775 10C96.6842 10.24 97.0442 10.6933 97.2575 11.36C97.4708 12.0267 97.5775 13.04 97.5775 14.4V36H93.9775V14.4ZM110.825 36.4C109.012 36.4 107.478 35.9733 106.225 35.12C104.972 34.24 104.025 33.0667 103.385 31.6C102.745 30.1067 102.425 28.44 102.425 26.6C102.425 24.7867 102.745 23.1333 103.385 21.64C104.025 20.1467 104.945 18.9733 106.145 18.12C107.372 17.24 108.798 16.8 110.425 16.8C113.118 16.8 115.118 17.56 116.425 19.08C117.758 20.5733 118.425 22.7467 118.425 25.6L118.345 27.2H106.225C106.225 29.44 106.705 31.2667 107.665 32.68C108.625 34.0933 109.945 34.8 111.625 34.8C112.878 34.8 113.932 34.5333 114.785 34C115.665 33.4667 116.478 32.6667 117.225 31.6L118.025 32.2C117.145 33.6667 116.118 34.7333 114.945 35.4C113.772 36.0667 112.398 36.4 110.825 36.4ZM114.625 25.6C114.625 23.2533 114.278 21.4667 113.585 20.24C112.892 19.0133 111.838 18.4 110.425 18.4C109.625 18.4 108.905 18.72 108.265 19.36C107.625 19.9733 107.118 20.8267 106.745 21.92C106.398 23.0133 106.225 24.24 106.225 25.6H114.625Z" fill="#30967E"/>
<g clip-path="url(#clip0_2_47)">
<path d="M130.376 14.4111L123.556 17.712C123.491 17.7437 123.419 17.7547 123.349 17.7433C123.278 17.732 123.213 17.699 123.162 17.6488L121.959 16.4456C121.909 16.3952 121.875 16.3305 121.864 16.2604C121.852 16.1903 121.862 16.1183 121.893 16.0543L125.118 9.20706C125.148 9.14575 125.195 9.09459 125.254 9.06006C125.312 9.02553 125.38 9.00918 125.448 9.01309C125.516 9.01699 125.581 9.04097 125.635 9.08199C125.69 9.12302 125.731 9.17923 125.753 9.24352L126.397 11.1322C126.458 11.1589 128.074 11.3995 128.079 11.4773C128.152 11.5268 128.204 11.6025 128.222 11.6888L128.555 13.3003L130.315 13.7719C130.382 13.7905 130.442 13.829 130.487 13.8823C130.532 13.9357 130.559 14.0013 130.566 14.0706C130.572 14.1399 130.558 14.2095 130.524 14.2703C130.49 14.3311 130.438 14.3802 130.376 14.4111V14.4111Z" fill="#30967E"/>
<path d="M123.869 17.87L123.585 18.1544C123.36 18.3761 123.068 18.5171 122.754 18.5553C122.441 18.5936 122.123 18.527 121.852 18.3659C120.986 17.8603 120.658 16.7203 121.402 15.9716L121.686 15.6873C121.751 15.6228 121.838 15.5866 121.929 15.5866C122.021 15.5866 122.108 15.6228 122.172 15.6873L123.874 17.3887C123.936 17.4536 123.971 17.5404 123.97 17.6304C123.969 17.7203 123.933 17.8064 123.869 17.87V17.87Z" fill="#4D4D4D"/>
<path d="M130.376 14.4111L123.556 17.712C123.491 17.7437 123.419 17.7547 123.349 17.7433C123.278 17.732 123.213 17.699 123.162 17.6488L122.535 17.0217L128.079 11.4773C128.152 11.5268 128.204 11.6025 128.222 11.6888L128.555 13.3003L130.315 13.7719C130.382 13.7905 130.442 13.829 130.487 13.8823C130.532 13.9357 130.559 14.0013 130.566 14.0706C130.572 14.1399 130.558 14.2095 130.524 14.2703C130.49 14.3311 130.438 14.3802 130.376 14.4111V14.4111Z" fill="#3BB396"/>
<path d="M123.869 17.87L123.585 18.1544C123.444 18.2919 123.276 18.3992 123.093 18.47C122.909 18.5407 122.713 18.5733 122.516 18.5658C122.32 18.5583 122.126 18.5108 121.949 18.4263C121.771 18.3418 121.612 18.222 121.482 18.0742L123.021 16.5356L123.869 17.3839C123.934 17.4483 123.97 17.5358 123.97 17.6269C123.97 17.7181 123.934 17.8055 123.869 17.87V17.87Z" fill="#4D4D4D"/>
</g>
<defs>
<clipPath id="clip0_2_47">
<rect width="11" height="11" fill="white" transform="translate(124.778 7) rotate(45)"/>
</clipPath>
</defs>
</svg>
