<svg width="194" height="194" viewBox="0 0 194 194" fill="none" xmlns="http://www.w3.org/2000/svg">
<g clip-path="url(#clip0_34_407)">
<path d="M92.1287 27.2387L133.077 111.849C133.47 112.644 133.606 113.541 133.466 114.417C133.325 115.292 132.915 116.102 132.293 116.734L117.367 131.66C116.741 132.281 115.938 132.692 115.069 132.838C114.2 132.984 113.307 132.857 112.512 132.474L27.5703 92.4604C26.8098 92.094 26.1752 91.5101 25.7468 90.7826C25.3184 90.0552 25.1156 89.2169 25.1641 88.3741C25.2125 87.5313 25.51 86.7219 26.0189 86.0483C26.5278 85.3747 27.2251 84.8673 28.0226 84.5904L51.4518 76.5998C51.7835 75.8459 54.7687 55.7939 55.7336 55.7336C56.347 54.8256 57.2864 54.1885 58.3569 53.9546L78.3486 49.8236L84.1984 27.9925C84.429 27.1605 84.9068 26.4182 85.5685 25.8636C86.2302 25.309 87.0447 24.9684 87.9041 24.8867C88.7636 24.805 89.6277 24.9861 90.382 25.406C91.1363 25.826 91.7454 26.4651 92.1287 27.2387Z" fill="#30967E"/>
<path d="M135.037 107.959L138.565 111.487C141.315 114.278 143.064 117.901 143.539 121.79C144.013 125.679 143.187 129.616 141.188 132.987C134.916 143.721 120.774 147.792 111.487 138.565L107.959 135.037C107.16 134.237 106.71 133.153 106.71 132.022C106.71 130.891 107.16 129.806 107.959 129.006L129.067 107.899C129.872 107.126 130.948 106.699 132.064 106.71C133.18 106.721 134.248 107.17 135.037 107.959Z" fill="#4D4D4D"/>
<path d="M92.1287 27.2387L133.077 111.849C133.47 112.644 133.606 113.541 133.466 114.417C133.325 115.292 132.915 116.102 132.293 116.734L124.513 124.513L55.7336 55.7336C56.347 54.8255 57.2864 54.1885 58.3569 53.9545L78.3486 49.8235L84.1984 27.9925C84.4291 27.1605 84.9068 26.4182 85.5685 25.8636C86.2302 25.309 87.0447 24.9684 87.9041 24.8867C88.7636 24.805 89.6277 24.9861 90.382 25.406C91.1363 25.826 91.7454 26.4651 92.1287 27.2387Z" fill="#3BB396"/>
<path d="M135.037 107.959L138.565 111.487C140.27 113.235 141.603 115.311 142.48 117.59C143.357 119.869 143.762 122.302 143.669 124.742C143.576 127.182 142.987 129.578 141.938 131.783C140.89 133.989 139.404 135.957 137.57 137.57L118.483 118.483L129.006 107.959C129.806 107.16 130.891 106.71 132.022 106.71C133.153 106.71 134.237 107.16 135.037 107.959Z" fill="#4D4D4D"/>
</g>
<defs>
<clipPath id="clip0_34_407">
<rect width="136.459" height="136.459" fill="white" transform="translate(0.19104 96.6819) rotate(-45)"/>
</clipPath>
</defs>
</svg>
