<svg width="12" height="12" viewBox="0 0 12 12" fill="none" xmlns="http://www.w3.org/2000/svg">
<path d="M9.99598 9.47692L2.83911 6.98817C2.77139 6.9653 2.71248 6.92189 2.67058 6.86397C2.62869 6.80606 2.60589 6.73653 2.60536 6.66505L2.60536 4.96349C2.60564 4.89243 2.62794 4.8232 2.66918 4.76534C2.71043 4.70747 2.76859 4.66381 2.83567 4.64036L9.95817 2.07942C10.0224 2.05696 10.0919 2.05407 10.1577 2.07112C10.2236 2.08817 10.283 2.12439 10.3282 2.17519C10.3735 2.22599 10.4027 2.28909 10.4121 2.35649C10.4215 2.42389 10.4107 2.49256 10.381 2.5538L9.50098 4.34474C9.52505 4.40661 10.4979 5.71974 10.4463 5.77817C10.4631 5.8649 10.4459 5.95476 10.3982 6.02911L9.49411 7.40411L10.405 8.98192C10.4393 9.04249 10.4544 9.11204 10.4483 9.18137C10.4422 9.2507 10.4152 9.31654 10.3708 9.37019C10.3265 9.42383 10.2669 9.46276 10.2 9.48182C10.1331 9.50088 10.0619 9.49917 9.99598 9.47692V9.47692Z" fill="#30967E"/>
<path d="M2.9491 7.32161L2.54692 7.32161C2.23108 7.31929 1.9249 7.21248 1.67616 7.01784C1.42742 6.8232 1.25011 6.55168 1.17192 6.24567C0.917544 5.2763 1.49161 4.23817 2.54692 4.23473L2.9491 4.23473C3.04027 4.23473 3.12771 4.27095 3.19217 4.33542C3.25664 4.39988 3.29285 4.48732 3.29285 4.57848L3.29285 6.98473C3.29105 7.07471 3.25405 7.16038 3.18977 7.22337C3.1255 7.28636 3.03909 7.32163 2.9491 7.32161V7.32161Z" fill="#4D4D4D"/>
<path d="M9.99598 9.47692L2.83911 6.98817C2.77139 6.9653 2.71248 6.92189 2.67058 6.86398C2.62869 6.80606 2.60589 6.73653 2.60536 6.66505L2.60536 5.77818L10.4463 5.77818C10.4631 5.8649 10.4459 5.95476 10.3982 6.02911L9.49411 7.40411L10.405 8.98192C10.4393 9.04249 10.4544 9.11204 10.4483 9.18137C10.4422 9.2507 10.4152 9.31654 10.3708 9.37019C10.3265 9.42383 10.2669 9.46276 10.2 9.48182C10.1331 9.50088 10.0619 9.49917 9.99598 9.47692V9.47692Z" fill="#3BB396"/>
<path d="M2.9491 7.32161L2.54692 7.32161C2.35009 7.31921 2.15581 7.27679 1.97591 7.19691C1.796 7.11703 1.63424 7.00138 1.50046 6.85699C1.36668 6.7126 1.26368 6.54249 1.19775 6.35702C1.13181 6.17155 1.10431 5.97461 1.11692 5.77817L3.29285 5.77817L3.29285 6.97786C3.29285 7.06903 3.25664 7.15646 3.19217 7.22093C3.12771 7.28539 3.04027 7.32161 2.9491 7.32161V7.32161Z" fill="#4D4D4D"/>
</svg>
