<svg width="550" height="125" viewBox="0 0 550 125" fill="none" xmlns="http://www.w3.org/2000/svg">
<path d="M38.4097 125C32.2327 125 26.168 124.158 20.2156 122.473C14.2632 120.788 9.3778 118.374 5.5593 115.229C1.8531 112.084 0 108.491 0 104.447V86.4219H3.03234C4.9416 97.6528 8.6478 105.795 14.1509 110.849C19.6541 115.791 27.2349 118.261 36.8935 118.261C42.9582 118.261 48.1244 116.745 52.3922 113.713C56.7722 110.681 58.9622 106.469 58.9622 101.078C58.9622 96.3612 57.5022 92.2619 54.5822 88.7804C51.6622 85.2988 46.9452 81.6487 40.4313 77.8302L19.7102 65.5324C12.5225 61.2646 7.4124 56.9407 4.38005 52.5607C1.46002 48.1806 0 42.846 0 36.5567C0 27.9089 2.97619 21.0018 8.92857 15.8356C14.9933 10.5571 22.911 7.91785 32.6819 7.91785C38.4097 7.91785 44.0813 8.76016 49.6967 10.4448C55.3122 12.0171 59.9169 14.3756 63.5108 17.5203C67.217 20.5526 69.0701 24.0903 69.0701 28.1335V46.1591H66.0377C64.1285 34.9282 60.4784 26.8981 55.0876 22.0688C49.8091 17.1272 42.3405 14.6564 32.6819 14.6564C27.5157 14.6564 22.9672 16.2287 19.0364 19.3734C15.1056 22.518 13.1402 26.6173 13.1402 31.6712C13.1402 36.2759 14.544 40.0944 17.3517 43.1267C20.2718 46.1591 25.1011 49.6968 31.8396 53.7399L52.5606 66.0378C60.1976 70.6424 65.5885 74.9102 68.7331 78.841C71.8778 82.7718 73.4501 87.7696 73.4501 93.8343C73.4501 103.268 70.3055 110.849 64.0161 116.577C57.7268 122.192 49.1914 125 38.4097 125Z" fill="#ECF9F6"/>
<path d="M92.8576 31.1658C92.8576 25.4381 92.0715 21.2265 90.4991 18.5311C88.9268 15.7233 85.7822 14.3195 81.0652 14.3195H77.6959V10.9502H92.8576C97.0131 10.9502 100.102 11.5117 102.123 12.6348C104.257 13.6456 105.773 15.5549 106.672 18.3626C107.57 21.1703 108.019 25.4381 108.019 31.1658V49.6968C110.378 47.3383 113.41 45.3729 117.116 43.8006C120.935 42.116 125.203 41.2736 129.92 41.2736C138.343 41.2736 145.194 43.5198 150.472 48.0122C155.863 52.5045 158.558 60.3662 158.558 71.5971V122.136H143.397V71.5971C143.397 63.7354 141.6 58.0077 138.006 54.4138C134.524 50.7076 130.144 48.8545 124.866 48.8545C118.913 48.8545 113.298 51.8307 108.019 57.7831V122.136H92.8576V31.1658Z" fill="#ECF9F6"/>
<path d="M210.832 123.821C202.409 123.821 195.502 121.575 190.111 117.082C184.833 112.59 182.193 104.728 182.193 93.4973V63.1739C182.193 57.4461 181.407 53.2345 179.835 50.5391C178.263 47.7314 175.118 46.3275 170.401 46.3275H168.716V42.9583H182.193C186.349 42.9583 189.437 43.5198 191.459 44.6429C193.593 45.6537 195.109 47.5629 196.007 50.3707C196.906 53.1784 197.355 57.4461 197.355 63.1739V93.4973C197.355 101.359 199.096 107.143 202.577 110.849C206.171 114.443 210.607 116.24 215.886 116.24C221.838 116.24 227.454 113.264 232.732 107.311V42.9583H247.894V122.136H239.471L233.575 115.398H232.732C230.374 117.756 227.285 119.778 223.467 121.462C219.761 123.035 215.549 123.821 210.832 123.821Z" fill="#ECF9F6"/>
<path d="M295.596 123.821C289.306 123.821 284.365 122.024 280.771 118.43C277.177 114.836 275.38 109.333 275.38 101.921V49.6968H263.588V42.9583H275.38V27.7966L283.803 17.6887H290.542V42.9583H310.757V49.6968H290.542V101.921C290.542 112.028 294.472 117.082 302.334 117.082C305.03 117.082 307.276 116.801 309.073 116.24C310.982 115.678 312.947 114.836 314.969 113.713L316.654 117.082C314.07 118.991 311.207 120.62 308.062 121.968C304.917 123.203 300.762 123.821 295.596 123.821Z" fill="#ECF9F6"/>
<path d="M352.518 123.821C346.229 123.821 341.287 122.024 337.693 118.43C334.099 114.836 332.302 109.333 332.302 101.921V49.6968H320.51V42.9583H332.302V27.7966L340.725 17.6887H347.464V42.9583H367.68V49.6968H347.464V101.921C347.464 112.028 351.395 117.082 359.256 117.082C361.952 117.082 364.198 116.801 365.995 116.24C367.904 115.678 369.87 114.836 371.891 113.713L373.576 117.082C370.993 118.991 368.129 120.62 364.984 121.968C361.839 123.203 357.684 123.821 352.518 123.821Z" fill="#ECF9F6"/>
<path d="M386.698 31.1658C386.698 25.4381 385.911 21.2265 384.339 18.5311C382.767 15.7233 379.622 14.3195 374.905 14.3195H371.536V10.9502H386.698C390.853 10.9502 393.941 11.5117 395.963 12.6348C398.097 13.6456 399.613 15.5549 400.512 18.3626C401.41 21.1703 401.859 25.4381 401.859 31.1658V122.136H386.698V31.1658Z" fill="#ECF9F6"/>
<path d="M457.652 123.821C450.015 123.821 443.557 122.024 438.279 118.43C433 114.724 429.013 109.782 426.318 103.605C423.623 97.3158 422.275 90.2965 422.275 82.5472C422.275 74.9102 423.623 67.947 426.318 61.6577C429.013 55.3684 432.888 50.4268 437.942 46.8329C443.108 43.1267 449.117 41.2736 455.968 41.2736C467.311 41.2736 475.734 44.4744 481.237 50.8761C486.853 57.1654 489.66 66.3186 489.66 78.3356L489.323 85.0742H438.279C438.279 94.5081 440.3 102.201 444.344 108.154C448.387 114.106 453.946 117.082 461.022 117.082C466.3 117.082 470.736 115.959 474.33 113.713C478.036 111.467 481.462 108.098 484.606 103.605L487.976 106.132C484.269 112.309 479.946 116.801 475.004 119.609C470.062 122.417 464.278 123.821 457.652 123.821ZM473.656 78.3356C473.656 68.4524 472.196 60.9277 469.276 55.7615C466.356 50.5953 461.92 48.0122 455.968 48.0122C452.598 48.0122 449.566 49.3599 446.871 52.0553C444.175 54.6384 442.041 58.2323 440.469 62.837C439.009 67.4416 438.279 72.6079 438.279 78.3356H473.656Z" fill="#ECF9F6"/>
<g clip-path="url(#clip0_201_19)">
<path d="M540.136 28.8381L514.32 41.3321C514.078 41.4521 513.804 41.4936 513.537 41.4507C513.27 41.4079 513.023 41.2828 512.83 41.0929L508.276 36.5388C508.086 36.3478 507.961 36.1029 507.916 35.8376C507.872 35.5723 507.911 35.2998 508.027 35.0575L520.236 9.14029C520.348 8.90825 520.526 8.71461 520.748 8.58391C520.97 8.45321 521.226 8.39133 521.483 8.40611C521.74 8.42089 521.987 8.51166 522.193 8.66693C522.398 8.8222 522.553 9.03497 522.637 9.2783L525.075 16.4269C525.306 16.5281 531.424 17.439 531.442 17.7334C531.719 17.9205 531.914 18.2071 531.985 18.5338L533.245 24.6336L539.906 26.4184C540.16 26.4888 540.387 26.6346 540.556 26.8365C540.725 27.0384 540.829 27.2869 540.854 27.5491C540.879 27.8114 540.824 28.075 540.696 28.3052C540.567 28.5353 540.372 28.7212 540.136 28.8381Z" fill="#ECF9F6"/>
<path d="M512.589 45.78L511.391 46.9777C510.443 47.9114 509.213 48.5051 507.893 48.6662C506.573 48.8273 505.236 48.5468 504.092 47.8683C500.447 45.739 499.065 40.9378 502.198 37.7848L503.396 36.5871C503.667 36.3156 504.035 36.1631 504.419 36.1631C504.803 36.1631 505.172 36.3156 505.443 36.5871L512.609 43.753C512.872 44.0263 513.017 44.3917 513.013 44.7707C513.009 45.1497 512.857 45.512 512.589 45.78V45.78Z" fill="#ECF9F6"/>
<path d="M540.136 28.8381L514.32 41.3321C514.078 41.4521 513.804 41.4936 513.537 41.4507C513.27 41.4078 513.023 41.2828 512.83 41.0929L510.456 38.7192L531.442 17.7333C531.719 17.9205 531.914 18.2071 531.985 18.5338L533.245 24.6336L539.906 26.4184C540.16 26.4888 540.387 26.6346 540.556 26.8365C540.725 27.0384 540.829 27.2869 540.854 27.5491C540.879 27.8113 540.824 28.075 540.696 28.3051C540.567 28.5353 540.373 28.7211 540.136 28.8381V28.8381Z" fill="#ECF9F6"/>
<path d="M512.589 45.78L511.391 46.9777C510.798 47.5567 510.093 48.009 509.319 48.3068C508.545 48.6047 507.719 48.7421 506.891 48.7104C506.062 48.6788 505.249 48.479 504.5 48.123C503.752 47.767 503.083 47.2624 502.536 46.6399L509.016 40.1599L512.589 43.7326C512.86 44.0041 513.013 44.3723 513.013 44.7563C513.013 45.1402 512.86 45.5085 512.589 45.78V45.78Z" fill="#ECF9F6"/>
</g>
<defs>
<clipPath id="clip0_201_19">
<rect width="46.3275" height="46.3275" fill="white" transform="translate(516.417) rotate(45)"/>
</clipPath>
</defs>
</svg>
