<svg width="100" height="190" viewBox="0 0 190 190" fill="none" xmlns="http://www.w3.org/2000/svg">
<g clip-path="url(#clip0_34_407)">
<path d="M76.8306 27.418L133.318 102.55C133.857 103.254 134.163 104.109 134.194 104.995C134.225 105.881 133.979 106.755 133.49 107.495L121.72 125.018C121.226 125.747 120.518 126.306 119.693 126.617C118.868 126.927 117.967 126.975 117.114 126.752L26.0524 103.859C25.2355 103.646 24.5002 103.195 23.9397 102.564C23.3792 101.933 23.0186 101.149 22.9037 100.313C22.7888 99.4768 22.9247 98.6252 23.2943 97.8662C23.6638 97.1071 24.2503 96.4749 24.9795 96.0494L46.4294 83.6932C46.6096 82.8896 45.6743 62.6382 46.6095 62.393C47.0364 61.3838 47.8354 60.5776 48.8408 60.1418L67.6615 52.2353L69.1942 29.6861C69.2603 28.8253 69.586 28.0048 70.1284 27.3331C70.6708 26.6614 71.4043 26.1701 72.232 25.9243C73.0596 25.6785 73.9423 25.6897 74.7635 25.9564C75.5846 26.2231 76.3054 26.7328 76.8306 27.418Z" fill="#30967E"/>
<path d="M134.491 98.3559L138.633 101.138C141.87 103.346 144.284 106.564 145.499 110.289C146.714 114.014 146.662 118.036 145.351 121.728C141.265 133.471 128.173 140.19 117.282 132.926L113.14 130.145C112.201 129.514 111.551 128.536 111.333 127.426C111.115 126.317 111.347 125.166 111.978 124.227L128.621 99.4473C129.262 98.5333 130.236 97.9069 131.333 97.7029C132.431 97.4988 133.565 97.7332 134.491 98.3559V98.3559Z" fill="#4D4D4D"/>
<path d="M76.8306 27.418L133.318 102.55C133.857 103.254 134.163 104.109 134.194 104.995C134.225 105.881 133.979 106.755 133.49 107.495L127.356 116.628L46.6095 62.393C47.0364 61.3838 47.8354 60.5776 48.8408 60.1417L67.6616 52.2353L69.1943 29.6861C69.2603 28.8253 69.586 28.0048 70.1284 27.3331C70.6708 26.6614 71.4043 26.1701 72.232 25.9243C73.0596 25.6785 73.9423 25.6897 74.7635 25.9564C75.5846 26.2231 76.3054 26.7328 76.8306 27.418V27.418Z" fill="#3BB396"/>
<path d="M134.491 98.3559L138.633 101.138C140.644 102.524 142.351 104.305 143.651 106.371C144.951 108.438 145.817 110.748 146.196 113.161C146.575 115.573 146.459 118.037 145.855 120.403C145.251 122.769 144.172 124.988 142.684 126.923L120.276 111.873L128.574 99.5181C129.204 98.5793 130.182 97.9294 131.292 97.7114C132.402 97.4935 133.553 97.7253 134.491 98.3559V98.3559Z" fill="#4D4D4D"/>
</g>
<defs>
<clipPath id="clip0_34_407">
<rect width="136.459" height="136.459" fill="white" transform="translate(0 113.278) rotate(-56.1119)"/>
</clipPath>
</defs>
</svg>
